<?xml version="1.0" encoding="UTF-8" standalone="no"?>
<!DOCTYPE svg PUBLIC "-//W3C//DTD SVG 1.1//EN"
 "http://www.w3.org/Graphics/SVG/1.1/DTD/svg11.dtd">
<!-- Generated by graphviz version 2.43.0 (0)
 -->
<!-- Title: %3 Pages: 1 -->
<svg width="890pt" height="368pt"
 viewBox="0.00 0.00 890.00 368.00" xmlns="http://www.w3.org/2000/svg" xmlns:xlink="http://www.w3.org/1999/xlink">
<g id="graph0" class="graph" transform="scale(1 1) rotate(0) translate(4 364)">
<title>%3</title>
<polygon fill="white" stroke="transparent" points="-4,4 -4,-364 886,-364 886,4 -4,4"/>
<!-- N1 -->
<g id="node1" class="node">
<title>N1</title>
<ellipse fill="orange" stroke="orange" cx="216" cy="-180" rx="72" ry="72"/>
</g>
<!-- F2 -->
<g id="node3" class="node">
<title>F2</title>
<polygon fill="blue" stroke="blue" points="72,-72 0,-72 0,0 72,0 72,-72"/>
</g>
<!-- N1&#45;&gt;F2 -->
<g id="edge3" class="edge">
<title>N1&#45;&gt;F2</title>
<path fill="none" stroke="black" d="M159.54,-134.46C133.88,-114.22 103.98,-90.63 80.02,-71.73"/>
<polygon fill="black" stroke="black" points="82.16,-68.95 72.14,-65.51 77.82,-74.45 82.16,-68.95"/>
</g>
<!-- F5 -->
<g id="node6" class="node">
<title>F5</title>
<polygon fill="blue" stroke="blue" points="162,-72 90,-72 90,0 162,0 162,-72"/>
</g>
<!-- N1&#45;&gt;F5 -->
<g id="edge6" class="edge">
<title>N1&#45;&gt;F5</title>
<path fill="none" stroke="black" d="M177.83,-118.78C169.74,-106.01 161.34,-92.76 153.72,-80.73"/>
<polygon fill="black" stroke="black" points="156.63,-78.8 148.32,-72.22 150.72,-82.54 156.63,-78.8"/>
</g>
<!-- F3 -->
<g id="node7" class="node">
<title>F3</title>
<polygon fill="blue" stroke="blue" points="252,-72 180,-72 180,0 252,0 252,-72"/>
</g>
<!-- N1&#45;&gt;F3 -->
<g id="edge4" class="edge">
<title>N1&#45;&gt;F3</title>
<path fill="none" stroke="black" d="M216,-108C216,-99.22 216,-90.45 216,-82.21"/>
<polygon fill="black" stroke="black" points="219.5,-82.1 216,-72.1 212.5,-82.1 219.5,-82.1"/>
</g>
<!-- F1 -->
<g id="node11" class="node">
<title>F1</title>
<polygon fill="blue" stroke="blue" points="342,-72 270,-72 270,0 342,0 342,-72"/>
</g>
<!-- N1&#45;&gt;F1 -->
<g id="edge2" class="edge">
<title>N1&#45;&gt;F1</title>
<path fill="none" stroke="black" d="M254.17,-118.78C262.26,-106.01 270.66,-92.76 278.28,-80.73"/>
<polygon fill="black" stroke="black" points="281.28,-82.54 283.68,-72.22 275.37,-78.8 281.28,-82.54"/>
</g>
<!-- F4 -->
<g id="node12" class="node">
<title>F4</title>
<polygon fill="blue" stroke="blue" points="432,-72 360,-72 360,0 432,0 432,-72"/>
</g>
<!-- N1&#45;&gt;F4 -->
<g id="edge5" class="edge">
<title>N1&#45;&gt;F4</title>
<path fill="none" stroke="black" d="M272.46,-134.46C298.12,-114.22 328.02,-90.63 351.98,-71.73"/>
<polygon fill="black" stroke="black" points="354.18,-74.45 359.86,-65.51 349.84,-68.95 354.18,-74.45"/>
</g>
<!-- N0 -->
<g id="node2" class="node">
<title>N0</title>
<ellipse fill="orange" stroke="orange" cx="666" cy="-180" rx="72" ry="72"/>
</g>
<!-- F8 -->
<g id="node5" class="node">
<title>F8</title>
<polygon fill="blue" stroke="blue" points="522,-72 450,-72 450,0 522,0 522,-72"/>
</g>
<!-- N0&#45;&gt;F8 -->
<g id="edge9" class="edge">
<title>N0&#45;&gt;F8</title>
<path fill="none" stroke="black" d="M609.54,-134.46C583.88,-114.22 553.98,-90.63 530.02,-71.73"/>
<polygon fill="black" stroke="black" points="532.16,-68.95 522.14,-65.51 527.82,-74.45 532.16,-68.95"/>
</g>
<!-- F7 -->
<g id="node8" class="node">
<title>F7</title>
<polygon fill="blue" stroke="blue" points="612,-72 540,-72 540,0 612,0 612,-72"/>
</g>
<!-- N0&#45;&gt;F7 -->
<g id="edge8" class="edge">
<title>N0&#45;&gt;F7</title>
<path fill="none" stroke="black" d="M627.83,-118.78C619.74,-106.01 611.34,-92.76 603.72,-80.73"/>
<polygon fill="black" stroke="black" points="606.63,-78.8 598.32,-72.22 600.72,-82.54 606.63,-78.8"/>
</g>
<!-- F10 -->
<g id="node9" class="node">
<title>F10</title>
<polygon fill="blue" stroke="blue" points="702,-72 630,-72 630,0 702,0 702,-72"/>
</g>
<!-- N0&#45;&gt;F10 -->
<g id="edge11" class="edge">
<title>N0&#45;&gt;F10</title>
<path fill="none" stroke="black" d="M666,-108C666,-99.22 666,-90.45 666,-82.21"/>
<polygon fill="black" stroke="black" points="669.5,-82.1 666,-72.1 662.5,-82.1 669.5,-82.1"/>
</g>
<!-- F11 -->
<g id="node10" class="node">
<title>F11</title>
<polygon fill="blue" stroke="blue" points="792,-72 720,-72 720,0 792,0 792,-72"/>
</g>
<!-- N0&#45;&gt;F11 -->
<g id="edge12" class="edge">
<title>N0&#45;&gt;F11</title>
<path fill="none" stroke="black" d="M704.17,-118.78C712.26,-106.01 720.66,-92.76 728.28,-80.73"/>
<polygon fill="black" stroke="black" points="731.28,-82.54 733.68,-72.22 725.37,-78.8 731.28,-82.54"/>
</g>
<!-- F9 -->
<g id="node13" class="node">
<title>F9</title>
<polygon fill="blue" stroke="blue" points="882,-72 810,-72 810,0 882,0 882,-72"/>
</g>
<!-- N0&#45;&gt;F9 -->
<g id="edge10" class="edge">
<title>N0&#45;&gt;F9</title>
<path fill="none" stroke="black" d="M722.46,-134.46C748.12,-114.22 778.02,-90.63 801.98,-71.73"/>
<polygon fill="black" stroke="black" points="804.18,-74.45 809.86,-65.51 799.84,-68.95 804.18,-74.45"/>
</g>
<!-- F0 -->
<g id="node4" class="node">
<title>F0</title>
<polygon fill="blue" stroke="blue" points="252,-360 180,-360 180,-288 252,-288 252,-360"/>
</g>
<!-- F0&#45;&gt;N1 -->
<g id="edge1" class="edge">
<title>F0&#45;&gt;N1</title>
<path fill="none" stroke="black" d="M216,-287.9C216,-279.96 216,-271.21 216,-262.24"/>
<polygon fill="black" stroke="black" points="219.5,-262.05 216,-252.05 212.5,-262.05 219.5,-262.05"/>
</g>
<!-- F6 -->
<g id="node14" class="node">
<title>F6</title>
<polygon fill="blue" stroke="blue" points="702,-360 630,-360 630,-288 702,-288 702,-360"/>
</g>
<!-- F6&#45;&gt;N0 -->
<g id="edge7" class="edge">
<title>F6&#45;&gt;N0</title>
<path fill="none" stroke="black" d="M666,-287.9C666,-279.96 666,-271.21 666,-262.24"/>
<polygon fill="black" stroke="black" points="669.5,-262.05 666,-252.05 662.5,-262.05 669.5,-262.05"/>
</g>
</g>
</svg>
